# xmcd CD database file
#
# Track frame offsets:
#	150
#	16122
#	39530
#	59140
#	82795
#	97845
#	115425
#	135172
#	155797
#	175907
#	188690
#	206930
#	225717
#	237317
#	254860
#
# Disc length: 3742 seconds
#
# Revision: 0
# Processed by: cddbd v1.4PL0 Copyright (c) Steve Scherf et al.
# Submitted via: CDex 1.50
#
DISCID=cb0e9c0f
DTITLE=Claude Nougaro - Les plus belles chansons
DYEAR=1998
DGENRE=Jazz
TTITLE0=Nougayork
TTITLE1=Toulouse
TTITLE2=Pacifique
TTITLE3=Lady Liberty
TTITLE4=Tu verras (o que sera)
TTITLE5=Cécile ma fille
TTITLE6=Los Angeles Eldorado
TTITLE7=Le cinéma
TTITLE8=Il faut tourner la page
TTITLE9=Quatres boules de cuir
TTITLE10=Armstrong
TTITLE11=Vive l'alexandrin
TTITLE12=Une petite fille
TTITLE13=Harlem (Fables of Faubus)
TTITLE14=Kiné
EXTD=YEAR: 1998
EXTT0=
EXTT1=
EXTT2=
EXTT3=
EXTT4=
EXTT5=
EXTT6=
EXTT7=
EXTT8=
EXTT9=
EXTT10=
EXTT11=
EXTT12=
EXTT13=
EXTT14=
PLAYORDER=
